<?xml version="1.0" encoding="UTF-8" standalone="no"?>
<!-- Created with Inkscape (http://www.inkscape.org/) -->

<svg
   xmlns:dc="http://purl.org/dc/elements/1.1/"
   xmlns:cc="http://creativecommons.org/ns#"
   xmlns:rdf="http://www.w3.org/1999/02/22-rdf-syntax-ns#"
   xmlns:svg="http://www.w3.org/2000/svg"
   xmlns="http://www.w3.org/2000/svg"
   xmlns:sodipodi="http://sodipodi.sourceforge.net/DTD/sodipodi-0.dtd"
   xmlns:inkscape="http://www.inkscape.org/namespaces/inkscape"
   version="1.1"
   id="svg2"
   width="467"
   height="509"
   viewBox="0 0 467 509"
   sodipodi:docname="Topps.svg"
   inkscape:version="0.92.4 (5da689c313, 2019-01-14)">
  <metadata
     id="metadata8">
    <rdf:RDF>
      <cc:Work
         rdf:about="">
        <dc:format>image/svg+xml</dc:format>
        <dc:type
           rdf:resource="http://purl.org/dc/dcmitype/StillImage" />
        <dc:title></dc:title>
      </cc:Work>
    </rdf:RDF>
  </metadata>
  <defs
     id="defs6" />
  <sodipodi:namedview
     pagecolor="#ffffff"
     bordercolor="#666666"
     borderopacity="1"
     objecttolerance="10"
     gridtolerance="10"
     guidetolerance="10"
     inkscape:pageopacity="0"
     inkscape:pageshadow="2"
     inkscape:window-width="725"
     inkscape:window-height="480"
     id="namedview4"
     showgrid="false"
     inkscape:zoom="0.46365422"
     inkscape:cx="229.72506"
     inkscape:cy="254.5"
     inkscape:window-x="2913"
     inkscape:window-y="530"
     inkscape:window-maximized="0"
     inkscape:current-layer="svg2" />
  <g
     id="g4520"
     transform="translate(4.3135589,56.076274)">
    <path
       style="fill:#cbcbcb"
       d="M 80.703735,394.75367 C 77.703147,389.11415 68.826486,372.125 60.977822,357 53.129158,341.875 46.657315,329.42148 46.595949,329.32552 c -0.06137,-0.096 -8.858923,-0.81248 -19.550127,-1.59226 L 7.6072689,326.31547 3.8063394,321.90774 C -0.63509346,316.75724 -0.80775382,315.10232 2.3422273,307.87443 3.6304523,304.91849 5.4682832,297.55 6.4262958,291.5 12.524459,252.98914 24.370239,196.60505 33.057549,164.73933 42.531046,129.98981 47.019374,118.20983 63.43929,85 80.655437,50.179766 83.089659,45.856195 86.937727,43.262983 91.175566,40.407103 102.02288,37 106.87741,37 c 3.27393,0 4.57497,-0.914554 12.14467,-8.537024 8.63184,-8.692015 20.07491,-17.352074 26.44566,-20.0139449 C 148.68149,7.1062435 149,7.1222317 149,8.6263374 c 0,0.9092476 0.70818,2.1710096 1.57373,2.8039156 1.41649,1.035765 1.42183,1.446433 0.0534,4.110243 C 149.32794,18.069617 140,66.011673 140,70.160015 c 0,0.795513 11.00043,8.834522 24.44539,17.864464 13.44496,9.029942 24.28955,16.573911 24.09909,16.764381 -0.19047,0.19046 -13.67015,-4.3913 -29.95486,-10.181685 l -29.60856,-10.527981 -4.24053,1.822993 c -2.33229,1.002646 -6.22421,3.483721 -8.6487,5.5135 -2.63176,2.203307 -4.66776,3.27047 -5.05236,2.64818 -1.32571,-2.145048 -8.84413,7.275923 -11.520775,14.436133 -1.439215,3.85 -3.527298,8.54349 -4.640183,10.42997 -2.092887,3.54771 -6.031965,13.24991 -5.567866,13.71401 0.144754,0.14475 16.221574,0.76801 35.726274,1.38502 19.50469,0.61701 36.39505,1.30126 37.53413,1.52056 1.93574,0.37267 2.19187,1.70273 3.92038,20.35799 l 1.84934,19.95928 8.7005,0.31659 8.70049,0.31658 2.82083,-11.75 c 2.47301,-10.30117 3.07463,-11.74733 4.87912,-11.72834 1.13206,0.0119 27.93329,4.01036 59.55829,8.88543 31.625,4.87507 57.56467,8.80282 57.64371,8.72834 0.47,-0.44291 -10.09686,-33.31551 -14.34802,-44.63543 -2.78843,-7.425 -5.63886,-16.07219 -6.3343,-19.21598 l -1.26442,-5.71598 -16.88586,-12.534022 C 262.52389,81.640308 254.51842,76 254.02118,76 253.52394,76 240.26576,82.562333 224.55856,90.582963 208.85135,98.603592 196,104.97176 196,104.73446 c 0,-0.23731 10.80647,-8.937144 24.01437,-19.332966 L 244.02874,66.5 l 2.96557,-7.665723 c 5.66771,-14.650507 7.28741,-22.346096 6.68784,-31.775684 -0.2993,-4.707226 -0.68773,-9.400738 -0.86317,-10.430027 -0.27399,-1.607506 0.95029,-2.13269 8.68102,-3.723924 4.95,-1.01887 18.15363,-3.2897533 29.34139,-5.0464074 17.86386,-2.8049061 20.787,-3.0366983 24,-1.903097 2.01224,0.7099507 4.44585,1.9799889 5.40803,2.8223069 0.96219,0.8423181 8.13412,11.4744775 15.93763,23.6270215 C 343.99056,44.55701 352.05951,56.75 354.11804,59.5 c 2.05853,2.75 4.19267,6.184122 4.74253,7.631383 0.81348,2.141142 2.32458,3.033794 8.11092,4.79134 3.91115,1.187976 7.92926,2.978023 8.92911,3.977881 2.78327,2.783262 29.13782,70.808376 51.37219,132.599396 l 6.47696,18 14.75466,83.36092 c 10.35592,58.50891 14.42218,83.56641 13.63943,84.05018 -0.61338,0.37909 -16.67483,1.75759 -35.69212,3.06333 l -34.57689,2.37408 -4.5776,-4.57759 -4.57759,-4.5776 -2.84662,-16.84666 C 378.30739,364.081 377.00178,356.05 376.97168,355.5 c -0.0301,-0.55 -4.24026,7.325 -9.35592,17.5 -5.11566,10.175 -11.09731,21.425 -13.29256,25 l -3.99137,6.5 -132.08624,0.25367 -132.086241,0.25367 z M 200,358.98642 c 3.575,-0.53536 16.30557,-1.27352 28.29016,-1.64037 11.98459,-0.36685 21.99009,-0.99048 22.23444,-1.38585 0.24435,-0.39537 -10.46122,-3.46504 -23.79016,-6.82147 C 213.4055,345.78229 175.1625,336.0973 141.75,327.61652 c -37.34807,-9.4797 -60.740583,-14.97599 -60.725554,-14.26805 0.188569,8.88257 10.096272,26.33164 21.252144,37.42848 l 8.22341,8.1799 20,0.29397 c 48.0867,0.70678 63.40369,0.64851 69.5,-0.2644 z M 294.73206,290 c 4.66893,-9.4129 15.43095,-41.50297 15.97752,-47.64159 l 0.54684,-6.14159 -58.87821,0.52382 c -73.67342,0.65545 -133.05462,-1.43998 -163.609154,-5.77339 -3.919133,-0.55584 -7.434036,-0.66335 -7.810896,-0.23893 -0.376859,0.42442 -1.141576,2.14344 -1.69937,3.82005 l -1.014171,3.04836 105.627691,28.65529 C 241.96754,282.01243 290.175,294.81566 291,294.70365 291.825,294.59164 293.50443,292.475 294.73206,290 Z M 176.65499,140.17126 c -2.19667,-2.42729 -2.10488,-7.45414 0.17375,-9.51627 2.42729,-2.19667 7.45414,-2.10488 9.51627,0.17375 2.19667,2.42729 2.10488,7.45414 -0.17375,9.51627 -2.42729,2.19667 -7.45414,2.10488 -9.51627,-0.17375 z m 7,-21 c -2.19667,-2.42729 -2.10488,-7.45414 0.17375,-9.51627 2.42729,-2.19667 7.45414,-2.10488 9.51627,0.17375 2.19667,2.42729 2.10488,7.45414 -0.17375,9.51627 -2.42729,2.19667 -7.45414,2.10488 -9.51627,-0.17375 z"
       id="path4534"
       inkscape:connector-curvature="0" />
    <path
       style="fill:#9e9e9e"
       d="m 387.13829,394.64091 -4.27813,-4.3591 -2.91798,-17.8909 c -1.60488,-9.84 -2.92397,-18.11591 -2.9313,-18.39091 -0.007,-0.275 -3.24364,6.1375 -7.1918,14.25 -3.94816,8.1125 -7.68133,14.75 -8.29593,14.75 -0.61461,0 -20.44624,-4.91178 -44.07031,-10.91506 C 114.82437,320.59355 74.79075,310.43416 55.760844,305.67498 l -21.739155,-5.43675 0.566765,2.63089 c 0.311721,1.44698 3.019988,7.75523 6.018372,14.01833 2.998383,6.2631 5.314244,11.52481 5.146357,11.6927 -0.167886,0.16789 -8.771172,-0.33132 -19.118411,-1.10935 L 7.8216091,326.0562 3.9518175,321.7781 C -0.57904168,316.76918 -0.83393129,314.603 2.3560898,308.21676 3.9146842,305.09654 5.6301598,297.91504 7.4242249,287 17.092086,228.18103 31.04936,167.52853 42.888617,132.88653 48.743357,115.75539 53.321177,105.36627 66.412638,79.5 80.114152,52.428383 82.482276,48.149825 85.518752,44.980428 c 4.082625,-4.261343 19.006768,-9.143952 23.122218,-7.564706 1.31628,0.505105 0.12646,2.220207 -5.79952,8.359878 C 88.007766,61.144201 77.204225,76.497559 66.574683,97.315802 60.813842,108.59856 51.44094,130.83864 52.18197,131.46691 c 0.174916,0.1483 23.04303,1.02275 50.81803,1.94321 27.775,0.92047 52.86204,1.91207 55.74898,2.20356 6.24107,0.63015 5.57836,-1.26674 7.82102,22.38632 0.91258,9.625 1.72017,17.55846 1.79462,17.62991 0.0745,0.0714 4.04178,0.32664 8.81628,0.5671 l 8.68089,0.4372 2.70174,-11.0671 c 1.48596,-6.08691 3.03724,-11.43979 3.4473,-11.8953 0.55123,-0.61233 132.09382,18.56834 142.09031,20.71868 1.53904,0.33106 0.23063,-3.83451 -15.04246,-47.89049 -1.6398,-4.73008 -2.52143,-5.56684 -16.33132,-15.5 C 280.97068,95.350874 244,67.802589 244,67.23997 c 0,-0.270601 1.55912,-4.388896 3.46471,-9.151766 5.08192,-12.701852 6.77828,-21.07779 6.29621,-31.088204 -0.22513,-4.675 -0.73715,-9.22384 -1.13783,-10.108533 -0.61456,-1.356965 0.88281,-1.941992 9.57421,-3.74068 9.00284,-1.863141 31.79163,-5.6306537 45.99934,-7.6047523 8.86634,-1.2319387 10.92631,0.7876734 28.14699,27.5955763 6.93949,10.802886 14.87605,22.920514 17.63681,26.928062 2.76076,4.007548 5.01956,7.863979 5.01956,8.569845 0,0.705867 1.9125,1.778123 4.25,2.382792 10.21934,2.643557 12.54185,4.00343 14.70805,8.61184 4.91399,10.454061 15.81322,38.7991 39.16946,101.86585 l 15.92468,43 14.99998,84.39059 c 8.24999,46.41483 14.79551,84.59507 14.5456,84.84498 -0.4143,0.4143 -62.71265,5.16541 -68.63956,5.23471 -1.70327,0.0199 -3.95313,-1.40833 -6.81992,-4.32937 z M 370.43532,315.25 c -0.20759,-0.9625 -2.64901,-15.925 -5.42537,-33.25 -2.77637,-17.325 -6.17576,-35.20233 -7.55421,-39.72741 l -2.50626,-8.2274 -4.22474,0.49023 c -2.32361,0.26962 -24.33183,0.93446 -48.90717,1.4774 C 186.5757,238.55888 109.57969,235.73745 68.29806,227.45577 47.279277,223.23911 38.431102,218.71795 35.743413,210.82131 L 34.272618,206.5 l -0.714911,8 c -0.3932,4.4 -0.792039,8.62172 -0.886308,9.38161 -0.1226,0.98825 6.376897,3.15839 22.828601,7.62233 12.65,3.43239 70.475,19.09891 128.5,34.8145 98.50103,26.67817 186.29669,50.48934 186.65638,50.62331 0.086,0.032 -0.0135,-0.72925 -0.22106,-1.69175 z M 176.65499,140.17126 c -2.19667,-2.42729 -2.10488,-7.45414 0.17375,-9.51627 2.42729,-2.19667 7.45414,-2.10488 9.51627,0.17375 2.19667,2.42729 2.10488,7.45414 -0.17375,9.51627 -2.42729,2.19667 -7.45414,2.10488 -9.51627,-0.17375 z m 7,-21 c -2.19667,-2.42729 -2.10488,-7.45414 0.17375,-9.51627 2.42729,-2.19667 7.45414,-2.10488 9.51627,0.17375 2.19667,2.42729 2.10488,7.45414 -0.17375,9.51627 -2.42729,2.19667 -7.45414,2.10488 -9.51627,-0.17375 z M 111.46534,92.987431 c 1.52955,-5.067219 13.56183,-34.921557 18.7455,-46.511077 7.61655,-17.028877 16.53215,-33.26844 18.98534,-34.581347 1.91169,-1.023105 2.03413,-0.913697 1.38944,1.241507 C 150.19678,14.436431 147.66169,27.425 144.9521,42 c -2.70959,14.575 -5.14204,27.417588 -5.40543,28.539084 -0.42004,1.788474 -4.04896,4.965501 -24.43942,21.396109 -4.19453,3.37995 -4.35886,3.42743 -3.64191,1.052238 z"
       id="path4532"
       inkscape:connector-curvature="0" />
    <path
       style="fill:#6e6e6e"
       d="m 387.74804,394.25183 -4.74793,-4.82041 -2.49695,-15.46571 C 379.12983,365.45957 377.73543,357.375 377.40449,356 c -0.50562,-2.10077 -1.78469,-0.14454 -8.00963,12.25 -4.07437,8.1125 -7.58317,14.75 -7.79735,14.75 -0.21417,0 -20.79873,-5.19117 -45.74346,-11.53593 C 290.90932,365.1193 218.075,346.65648 154,330.43556 89.925,314.21464 36.654963,300.46607 35.622139,299.88317 c -1.734122,-0.9787 -1.828455,-0.76602 -1.232413,2.77851 0.354996,2.11107 3.145721,8.71763 6.201612,14.68123 3.055891,5.96361 5.410477,10.94893 5.232414,11.0785 -0.178064,0.12957 -8.629468,-0.36003 -18.780899,-1.088 L 8.585707,326.00982 4.2928535,321.7967 C 1.9317841,319.47949 0,316.79011 0,315.82031 0,314.8505 1.1262901,311.51028 2.502867,308.3976 4.0075304,304.99529 6.0159809,296.70832 7.5387985,287.61909 19.414301,216.73785 34.287574,154.46392 47.356879,120.90203 56.24131,98.086877 79.919526,51.506282 85.865816,45.14594 c 4.115715,-4.4023 14.323344,-7.685636 22.531154,-7.247257 1.40417,0.075 -0.44684,2.524075 -7.12532,9.427552 C 86.921274,62.160061 76.0287,77.882983 65.472941,99 60.990693,107.96683 52,129.29743 52,130.96482 c 0,0.81725 9.543743,1.28755 71.88235,3.54219 21.6603,0.7834 39.57727,1.61928 39.8155,1.85751 0.35829,0.35829 4.19636,34.67065 4.27717,38.23795 0.0241,1.06244 16.81021,2.94563 17.76305,1.99279 0.24165,-0.24165 1.70952,-5.45952 3.26193,-11.59526 1.55241,-6.13574 3.0195,-11.35283 3.2602,-11.59353 0.37219,-0.37219 133.11867,19.57759 140.98061,21.18725 l 2.74081,0.56115 -8.57314,-25.32743 c -4.71523,-13.93009 -9.18489,-26.28412 -9.93259,-27.4534 -0.74769,-1.16928 -5.09815,-4.73794 -9.66767,-7.93035 -8.61931,-6.02174 -61.61863,-45.014198 -63.21443,-46.50789 -0.53297,-0.498867 0.15149,-3.234521 1.66183,-6.642014 7.59683,-17.13929 10.06863,-34.555778 6.29067,-44.324541 -0.46272,-1.196466 0.66868,-1.788284 5.18085,-2.710013 7.466,-1.525126 45.37775,-7.8831703 51.4189,-8.62328 7.64122,-0.9361364 10.45973,1.8939766 25.90287,26.009503 7.34517,11.47 15.0587,23.190641 17.14117,26.04587 2.08248,2.855229 4.55318,6.79945 5.49045,8.764935 1.50922,3.164861 2.4971,3.809762 8.63684,5.638257 3.81299,1.135557 7.93392,3.065867 9.15764,4.289579 3.12209,3.12209 23.47874,55.481634 51.948,133.615904 l 5.64762,15.5 14.90023,83.98113 c 8.19512,46.18962 14.7986,84.08274 14.6744,84.20695 -0.12421,0.1242 -13.0327,1.13209 -28.68554,2.23975 -15.65285,1.10766 -31.38563,2.26828 -34.96174,2.57916 l -6.50202,0.56524 z M 370.60475,314.25 c -0.30478,-1.5125 -2.83261,-16.73862 -5.61738,-33.83582 -2.78477,-17.0972 -6.08074,-34.4222 -7.32438,-38.5 l -2.26117,-7.41418 -5.45091,0.0553 C 346.95291,234.5857 318.625,235.20357 287,235.92834 155.92034,238.93235 69.955719,233.2206 44.849465,219.8391 c -5.191768,-2.76718 -6.494197,-4.03207 -8.410403,-8.16801 l -2.267323,-4.89378 -0.628289,5.36135 c -0.345559,2.94875 -0.721701,7.14302 -0.83587,9.32061 L 32.5,225.4185 l 6,1.66615 c 3.3,0.91639 64.275,17.44716 135.5,36.73505 71.225,19.28789 144.35,39.11194 162.5,44.05344 18.15,4.94151 33.37325,9.01657 33.82946,9.05571 0.4562,0.0391 0.58008,-1.16635 0.27529,-2.67885 z M 33.683114,295.8125 c -0.319226,-0.79773 -0.556183,-0.56078 -0.604167,0.60417 -0.04342,1.05416 0.192928,1.64479 0.52522,1.3125 0.332291,-0.33229 0.367818,-1.1948 0.07895,-1.91667 z M 177,140 c -1.1,-1.1 -2,-3.125 -2,-4.5 0,-1.375 0.9,-3.4 2,-4.5 1.1,-1.1 3.125,-2 4.5,-2 1.375,0 3.4,0.9 4.5,2 1.1,1.1 2,3.125 2,4.5 0,1.375 -0.9,3.4 -2,4.5 -1.1,1.1 -3.125,2 -4.5,2 -1.375,0 -3.4,-0.9 -4.5,-2 z m 7,-21 c -1.1,-1.1 -2,-3.125 -2,-4.5 0,-1.375 0.9,-3.4 2,-4.5 1.1,-1.1 3.125,-2 4.5,-2 1.375,0 3.4,0.9 4.5,2 1.1,1.1 2,3.125 2,4.5 0,1.375 -0.9,3.4 -2,4.5 -1.1,1.1 -3.125,2 -4.5,2 -1.375,0 -3.4,-0.9 -4.5,-2 z M 111,94.779835 C 111,93.96066 122.18224,65.5223 126.44522,55.5 c 5.83749,-13.724002 15.78918,-33.732049 19.35812,-38.919839 2.93378,-4.264522 6.13103,-6.281599 4.70234,-2.966611 -0.44716,1.037548 -3.20295,14.61461 -6.12398,30.171249 -5.0156,26.711772 -5.46587,28.414832 -8.09633,30.622922 C 127.61208,81.688341 111,95.072492 111,94.779835 Z"
       id="path4530"
       inkscape:connector-curvature="0" />
    <path
       style="fill:#4f4f4f"
       d="M 387.8148,394.25554 383.19387,389.5 380.53367,373 c -1.46311,-9.075 -2.89737,-17.175 -3.18724,-18 -0.30862,-0.87835 -3.61225,4.6362 -7.9715,13.30635 -5.96168,11.85724 -7.7861,14.70083 -9.15969,14.27656 C 358.28153,381.98563 312.88776,370.44316 153,329.89342 92.225,314.48004 40.8215,301.43362 38.77,300.90139 c -2.991814,-0.77619 -3.914015,-1.60434 -4.659812,-4.18455 -1.32998,-4.60129 -1.318088,-0.79257 0.01712,5.48394 0.620021,2.91457 3.347814,9.73393 6.061761,15.15413 2.713948,5.42019 4.685889,10.10346 4.382091,10.40726 -0.303798,0.3038 -8.544091,-0.001 -18.311762,-0.6781 L 8.5,325.85361 4.7077643,322.18262 C -0.29987856,317.33507 -0.67670747,315.26893 2.35549,309.28518 4.2081514,305.62913 5.9443167,298.05421 8.9726672,280.41434 21.809385,205.6416 36.533739,146.48585 50.500616,113.57396 56.331045,99.834997 72.263224,67.03569 76.725857,59.584501 c 9.033166,-15.082539 9.967782,-16.20642 15.431984,-18.557057 2.88036,-1.239097 7.952009,-2.499091 11.270339,-2.799986 l 6.03331,-0.547082 -7.33292,7.909812 C 81.880261,67.431454 66.754919,91.936342 55.18268,121.64822 l -3.952549,10.14822 10.634935,0.61095 c 5.849213,0.33602 31.109934,1.31994 56.134934,2.18649 25.025,0.86656 45.59063,1.66556 45.70139,1.77557 0.11077,0.11 1.09371,8.89231 2.1843,19.51624 1.0906,10.62393 2.15338,19.48672 2.36174,19.69508 0.20836,0.20836 4.25342,0.67666 8.98902,1.04067 l 8.61019,0.66183 1.01844,-3.89164 c 0.56014,-2.1404 1.90868,-7.41816 2.99675,-11.72837 1.08807,-4.31021 2.12678,-7.98166 2.30824,-8.1588 0.18146,-0.17713 32.4523,4.60203 71.71297,10.62037 39.26067,6.01833 71.55814,10.76732 71.77215,10.55331 0.37307,-0.37307 -14.56473,-44.85508 -17.04006,-50.74216 -0.80097,-1.90495 -6.08499,-6.34639 -15.91251,-13.37515 -10.80363,-7.72687 -55.97366,-40.974672 -58.46112,-43.030825 -0.14218,-0.117525 1.12073,-3.547354 2.80647,-7.621843 6.60815,-15.972113 9.08039,-30.409278 6.74771,-39.404585 L 252.5,15.507154 261,13.763541 c 10.82346,-2.220226 44.39486,-7.6364688 49,-7.9054167 6.68194,-0.3902365 9.42192,2.1554337 20.40366,18.9567137 5.63872,8.626839 13.36714,20.396696 17.17428,26.155238 3.80713,5.758542 8.12626,12.465324 9.59806,14.90396 2.44829,4.056612 3.32092,4.63722 10.25556,6.8236 4.96433,1.565172 8.06631,3.150984 8.99025,4.596041 2.70283,4.227271 22.06487,54.565993 48.35106,125.706323 l 7.5747,20.5 15.17449,85 c 8.34596,46.75 14.90526,85.09337 14.57621,85.20748 -0.32905,0.11411 -14.09827,1.11977 -30.59827,2.23478 -16.5,1.11502 -32.03946,2.26164 -34.53213,2.54806 -4.35454,0.50036 -4.71321,0.33442 -9.15307,-4.23478 z M 371,316.08315 c 0,-4.32659 -10.57823,-64.75816 -12.66154,-72.33315 l -2.68149,-9.75 -4.07849,0.0356 c -2.24316,0.0196 -16.67848,0.45966 -32.07848,0.978 -37.24762,1.25371 -144.65634,1.25236 -171,-0.002 -63.459185,-3.02196 -99.697366,-9.30156 -108.858539,-18.86377 -1.426519,-1.48896 -3.209633,-4.48637 -3.962475,-6.6609 l -1.368804,-3.9537 -0.600507,3.48348 c -0.330278,1.91591 -0.893402,6.43608 -1.251386,10.04483 l -0.650879,6.56135 18.846295,5.07265 C 86.799253,240.42425 296.775,297.30096 332.5,307.03984 c 19.8,5.39762 36.5625,9.84677 37.25,9.88701 0.6875,0.0402 1.25,-0.33943 1.25,-0.8437 z M 32.662281,289.75 c -0.277413,-0.6875 -0.504386,-0.125 -0.504386,1.25 0,1.375 0.226973,1.9375 0.504386,1.25 0.277412,-0.6875 0.277412,-1.8125 0,-2.5 z M 177.17431,139.68555 C 175.97844,138.4126 175,136.40513 175,135.2245 175,132.53343 178.68982,129 181.5,129 c 2.87003,0 6.5,3.55437 6.5,6.36464 0,2.76978 -3.86837,6.63536 -6.64014,6.63536 -1.10618,0 -2.98967,-1.0415 -4.18555,-2.31445 z m 7,-21 C 182.97844,117.4126 182,115.40513 182,114.2245 182,111.53343 185.68982,108 188.5,108 c 2.87003,0 6.5,3.55437 6.5,6.36464 0,2.76978 -3.86837,6.63536 -6.64014,6.63536 -1.10618,0 -2.98967,-1.0415 -4.18555,-2.31445 z M 112,93.290494 c 0,-1.345508 8.76091,-23.703199 15.13786,-38.631532 6.51963,-15.26238 13.98157,-30.304833 18.80505,-37.908962 3.28614,-5.180529 5.66275,-6.473207 4.03634,-2.19543 -0.53418,1.405013 -3.21764,14.792513 -5.96324,29.75 l -4.992,27.19543 -3.57104,3.157008 C 127.23065,81.926024 112,94.026837 112,93.290494 Z"
       id="path4528"
       inkscape:connector-curvature="0" />
    <path
       style="fill:#292929"
       d="M 387.7895,394.22253 383.2083,389.5 380.47498,372 c -1.50333,-9.625 -3.02817,-17.83047 -3.38854,-18.23439 -0.36036,-0.40391 -3.96565,5.93387 -8.01175,14.08395 l -7.35655,14.81833 -44.60907,-11.33965 C 261.4316,357.17501 85.945061,312.61865 56.789424,305.23261 l -21.710576,-5.49998 -1.45116,-6.11632 c -1.959302,-8.25801 -2.050267,-2.78275 -0.109125,6.56831 0.93772,4.51728 3.455121,11.07728 6.581522,17.15052 2.784628,5.40933 4.830814,10.06729 4.547081,10.35103 -0.283733,0.28373 -8.670067,-0.0494 -18.636297,-0.74025 L 7.8904499,325.68979 3.9516812,321.09489 C 1.7853584,318.5677 0.01440319,316.05 0.01622516,315.5 0.01804713,314.95 1.1734251,312.025 2.5837318,309 4.3740773,305.15985 6.1884941,297.3133 8.5959119,283 19.638439,217.34666 35.55162,151.54943 48.158409,119.41846 53.557213,105.65851 76.322258,59.864182 82.525813,50.284744 c 4.225034,-6.524235 5.213726,-7.423284 10.32336,-9.387359 3.107955,-1.194656 8.123727,-2.400169 11.146157,-2.678918 l 5.49533,-0.506817 -8.12527,8.583793 C 82.463455,66.264031 67.867148,89.755485 55.880072,119.5 l -4.836015,12 3.727972,0.65875 c 2.050384,0.36231 27.352971,1.43227 56.227971,2.3777 28.875,0.94542 52.56938,1.77399 52.65418,1.84125 0.0848,0.0673 0.9622,8.5662 1.94977,18.88651 0.98757,10.32032 2.1386,19.32032 2.55784,20 0.51098,0.82843 3.63917,1.23579 9.48978,1.23579 h 8.72754 l 2.88664,-11.58861 2.88664,-11.58861 4.6738,0.7352 c 60.29644,9.48481 138.37431,21.07485 138.83952,20.60964 0.56704,-0.56704 -4.10127,-14.83031 -13.86898,-42.37439 l -3.97415,-11.20678 -11.66129,-8.21854 C 299.74758,108.34772 283.15248,96.200396 269.28328,85.873867 L 244.06656,67.09836 246.41252,61.793714 C 252.04953,49.047446 254.30675,39.92032 254.39905,29.5 c 0.057,-6.435144 -0.36736,-10.802093 -1.19042,-12.25 -1.19378,-2.10009 -1.09343,-2.250985 1.50619,-2.264781 1.53185,-0.0081 5.54418,-0.665425 8.91628,-1.460655 C 271.77087,11.604994 307.2205,6 311.22135,6 c 5.35557,0 9.32098,3.8009054 18.02558,17.277815 C 333.78612,30.305614 342,42.942081 347.5,51.358854 c 5.5,8.416773 10.48376,16.142524 11.07502,17.168334 0.64713,1.122744 4.12753,2.793372 8.74411,4.19726 9.00212,2.737519 8.25363,1.665464 17.72844,25.39203 6.34426,15.887132 36.59432,96.557402 43.82945,116.883522 3.65303,10.26268 5.65952,20.3764 18.64894,94 8.00551,45.375 14.7173,82.9824 14.91507,83.572 0.24136,0.71953 -10.54024,1.80487 -32.79072,3.30091 -18.23267,1.22589 -34.0794,2.41863 -35.21496,2.65052 -1.46305,0.29878 -3.39951,-0.95441 -6.64585,-4.3009 z M 371.00947,315.75 c 0.0368,-4.85249 -10.6295,-66.0109 -12.75407,-73.12954 l -2.65012,-8.87954 -15.05264,0.6208 c -33.71875,1.39064 -157.30723,1.88713 -184.55264,0.7414 -57.867539,-2.43345 -93.885545,-7.25963 -109.576214,-14.6825 -6.244428,-2.95409 -8.011805,-4.8261 -10.33533,-10.94719 -1.593971,-4.19916 -1.869122,-4.47238 -2.377769,-2.36105 -0.316365,1.31319 -0.884658,6.05267 -1.262875,10.53217 -0.626822,7.42393 -0.522217,8.19299 1.182261,8.69209 C 34.658533,226.63778 97.375,243.6106 173,264.05401 c 75.625,20.4434 150.325,40.68343 166,44.97783 15.675,4.29441 29.2875,7.84404 30.25,7.88808 0.9625,0.0441 1.75426,-0.48242 1.75947,-1.16992 z M 177.45455,139.54545 C 176.10455,138.19545 175,136.375 175,135.5 c 0,-0.875 1.10455,-2.69545 2.45455,-4.04545 3.09551,-3.09552 4.99539,-3.09552 8.0909,0 1.35,1.35 2.45455,3.17045 2.45455,4.04545 0,0.875 -1.10455,2.69545 -2.45455,4.04545 -1.35,1.35 -3.17045,2.45455 -4.04545,2.45455 -0.875,0 -2.69545,-1.10455 -4.04545,-2.45455 z m 7,-21 C 183.10455,117.19545 182,115.375 182,114.5 c 0,-0.875 1.10455,-2.69545 2.45455,-4.04545 1.35,-1.35 3.17045,-2.45455 4.04545,-2.45455 0.875,0 2.69545,1.10455 4.04545,2.45455 1.35,1.35 2.45455,3.17045 2.45455,4.04545 0,0.875 -1.10455,2.69545 -2.45455,4.04545 -1.35,1.35 -3.17045,2.45455 -4.04545,2.45455 -0.875,0 -2.69545,-1.10455 -4.04545,-2.45455 z M 113.41717,89.25 C 120.54463,69.130391 136.21919,33.827616 143.57226,21.333684 149.05151,12.023643 150.78639,9.9896322 149.6142,14.25 148.93074,16.73405 139,69.804338 139,70.972734 139,71.69639 113.40957,93 112.54029,93 c -0.24836,0 0.14623,-1.6875 0.87688,-3.75 z"
       id="path4526"
       inkscape:connector-curvature="0" />
    <path
       style="fill:#242424"
       d="m 387.32927,393.75 -4.08715,-4.25 -2.80196,-18.25 C 378.89908,361.2125 377.37491,353 377.05311,353 c -0.32179,0 -3.83841,6.525 -7.8147,14.5 -3.97629,7.975 -7.73801,14.5 -8.35939,14.5 -0.91286,0 -224.76287,-56.62995 -305.52359,-77.29186 l -20.14457,-5.15382 -2.054982,-8.52716 C 31.340712,283.49512 31.163402,283.14185 31.636515,288 c 1.210638,12.4314 3.49964,20.48992 8.483709,29.8672 2.73829,5.15196 4.791297,9.55461 4.562239,9.78367 -0.229059,0.22906 -8.577638,-0.13378 -18.552399,-0.80632 L 7.9941364,325.62176 3.8905336,320.75513 -0.21306913,315.8885 2.4996263,309.69425 C 4.3505902,305.4677 6.2971837,297.14668 8.6274226,283.5 21.036212,210.82988 36.203653,148.86762 49.506545,116.5 55.353898,102.27265 72.906552,66.807474 79.79532,55.301467 86.246467,44.526399 86.719202,44.003538 92.296812,41.474383 95.485059,40.02868 100.66006,38.584227 103.79681,38.264487 L 109.5,37.683143 100.98823,46.642707 C 86.418616,61.97881 75.827078,77.300918 65.373639,98.164081 58.326189,112.22951 50.704713,131.13322 51.720903,132.02725 c 0.428503,0.37699 25.79053,1.50248 56.360057,2.5011 l 55.58097,1.81566 1.8232,19.57799 c 1.02712,11.02945 2.30169,19.89879 2.91904,20.31269 0.60271,0.40408 4.94062,0.74158 9.63981,0.75 l 8.54399,0.0153 2.8048,-11.5 c 2.50526,-10.27185 3.03454,-11.49538 4.95601,-11.45669 1.18317,0.0238 33.65122,4.90325 72.15122,10.84319 38.5,5.93994 70.07633,10.75663 70.16962,10.70375 0.0933,-0.0529 -3.98178,-12.24482 -9.0557,-27.0932 L 318.38861,121.5 l -12.9443,-9.31905 c -7.11937,-5.12547 -23.82408,-17.39792 -37.12157,-27.272101 l -24.17727,-17.953056 2.82318,-6.227897 C 252.26827,49.03696 254.40001,40.283662 254.45199,30 c 0.0264,-5.225 -0.31237,-10.634299 -0.75284,-12.020664 -0.78159,-2.460055 -0.63732,-2.54885 6,-3.692854 28.79922,-4.9638149 37.9096,-6.4370574 45.60155,-7.3742411 8.78811,-1.0707392 8.80586,-1.068344 12.40132,1.6740506 2.07466,1.5824215 7.74195,9.1388515 13.37242,17.8300165 5.37449,8.29603 12.8439,19.709024 16.59868,25.362208 3.75479,5.653184 7.94969,12.279159 9.32202,14.724387 1.82652,3.254509 3.30036,4.619287 5.5,5.093014 1.65267,0.355929 5.32512,1.508984 8.161,2.562345 l 5.15614,1.915202 5.24311,12.713268 c 6.24365,15.139358 27.76376,71.974738 41.76077,110.291728 L 432.83312,226.5 447.42064,309 c 8.02313,45.375 14.58568,83.0625 14.58344,83.75 -0.003,0.86909 -1.95022,1.25 -6.3906,1.25 h -6.38652 l -0.52306,-13.75 c -0.55789,-14.66561 -3.24047,-33.45392 -7.10327,-49.75 -3.98671,-16.81881 -5.52533,-27.28862 -6.53988,-44.50201 -0.64471,-10.93841 -1.62824,-18.69279 -2.91723,-23 -2.35596,-7.87252 -3.83815,-14.74316 -4.69141,-21.74687 -0.70729,-5.80548 -1.92448,-7.48951 -2.82371,-3.90669 -0.94571,3.76801 -4.49605,7.55306 -9.47705,10.10356 -5.32995,2.72918 -6.05554,3.7414 -10.24879,14.2973 -2.98551,7.5156 -3.05333,8.04654 -2.45775,19.24179 0.33687,6.3321 1.26106,16.46292 2.05377,22.51292 0.79271,6.05 2.16231,17.3 3.04356,25 0.88125,7.7 3.15161,20.3 5.04524,28 3.9158,15.92263 6.04161,31.33367 5.05075,36.61539 l -0.67366,3.59092 -8.23223,0.64085 c -16.18991,1.26033 -16.83604,1.15174 -21.40297,-3.59716 z m -15.70109,-77.5 c -0.27863,-0.9625 -2.81206,-16.15 -5.62985,-33.75 -2.81778,-17.6 -6.25471,-35.77844 -7.63762,-40.39653 l -2.51439,-8.39654 -18.67316,0.64962 C 295.52084,235.80558 189.188,236.2498 160,235.09671 97.816464,232.64011 62.648138,227.94225 46.17463,219.89167 c -6.754423,-3.30088 -9.6729,-6.76642 -10.822259,-12.85087 -0.563851,-2.98491 -0.75805,-3.17644 -1.416345,-1.3969 -0.419594,1.13427 -1.081173,6.13085 -1.470177,11.1035 -0.649555,8.3033 -0.554601,9.08825 1.163436,9.61772 2.367063,0.72948 64.939032,17.70068 179.370715,48.65015 49.225,13.31351 104.8,28.39265 123.5,33.50919 18.7,5.11655 34.36782,9.34167 34.81739,9.38917 0.44956,0.0475 0.58942,-0.70113 0.31079,-1.66363 z m 52.91757,-99 c -0.37658,-3.1625 -4.4956,-17 -9.15338,-30.75 -6.30119,-18.60142 -9.85265,-27.43146 -13.87597,-34.5 -2.974,-5.225 -8.38434,-16.25 -12.02298,-24.5 -9.83584,-22.30107 -19.22107,-40.595737 -22.64635,-44.144603 -4.56299,-4.727625 -23.38459,-9.354899 -38.05271,-9.355226 L 321.08872,74 l 1.4684,4.161893 c 0.80762,2.28904 4.65541,10.442844 8.55064,18.119564 3.89523,7.676723 7.93842,16.446213 8.98487,19.487773 1.04645,3.04155 3.41965,8.27525 5.27377,11.63043 4.51556,8.17124 7.39909,17.19082 17.73589,55.47727 2.5086,9.29158 6.00174,16.43295 9.26809,18.94768 0.62129,0.47832 4.21919,1.94006 7.99533,3.24831 4.15124,1.43821 8.5852,3.89219 11.21481,6.20687 3.80294,3.34748 4.62131,3.68256 6.51663,2.66822 3.08225,-1.64957 12.76906,-1.4969 16.92756,0.26679 1.93859,0.82218 4.86359,3.10272 6.5,5.06784 1.63641,1.96513 3.13964,3.60545 3.34051,3.64516 0.20088,0.0397 0.0571,-2.5153 -0.31947,-5.6778 z M 178.99892,140.66429 c -4.58439,-2.33058 -4.20912,-8.96617 0.6065,-10.72424 2.6619,-0.97179 6.43977,0.88578 7.45453,3.66537 1.70685,4.67534 -3.60311,9.32516 -8.06103,7.05887 z m 7,-21 c -4.58439,-2.33058 -4.20912,-8.96617 0.6065,-10.72424 2.6619,-0.97179 6.43977,0.88578 7.45453,3.66537 1.70685,4.67534 -3.60311,9.32516 -8.06103,7.05887 z M 116.92087,80.746157 C 119.53227,74.01077 124.0318,62.875 126.91983,56 c 9.40201,-22.381586 25.29522,-51.2913179 22.19574,-40.373997 -0.44877,1.580698 -2.9955,14.857747 -5.6594,29.504552 l -4.84346,26.630555 -11.46487,9.369445 c -6.30568,5.153195 -12.25464,9.930215 -13.21991,10.615602 -1.28893,0.915195 -0.49405,-2.006242 2.99294,-11 z"
       id="path4524"
       inkscape:connector-curvature="0" />
    <path
       style="fill:#1d1d1d"
       d="M 312.5,370.02026 C 287.2,363.53901 224.65,347.61497 173.5,334.6335 122.35,321.65203 70.295896,308.43654 57.824214,305.26574 L 35.148427,299.50066 33.102888,290.50033 31.05735,281.5 31.615488,288 c 0.979703,11.40948 3.468698,20.23278 8.451564,29.96015 2.665291,5.20308 4.700398,9.60573 4.522462,9.78367 -0.177937,0.17794 -8.441003,-0.22379 -18.362368,-0.89272 l -18.038847,-1.21625 -4.21138,-4.88911 -4.21137998,-4.88911 3.11723048,-7.05751 C 4.5972463,304.9175 6,300.96161 6,300.00826 6,299.0549 7.8246738,287.97554 10.054831,275.38744 20.958211,213.84344 32.207188,166.19836 44.026574,131.5 49.887684,114.29345 69.245116,73.04206 79.654748,55.575076 86.271899,44.471735 86.693164,44.001632 92.296812,41.467411 95.485059,40.025542 100.66006,38.588947 103.79681,38.274977 L 109.5,37.704122 100.98125,46.602061 C 86.387828,61.845077 75.971121,76.882318 65.376497,98 60.024334,108.66817 51,130.02024 51,132.01558 c 0,0.34574 25.347084,1.46315 56.32685,2.48313 l 56.32686,1.85452 1.92314,20.07339 L 167.5,176.5 l 9.53578,0.28363 9.53578,0.28363 2.81301,-11.53363 C 191.23528,157.94548 192.65688,154 193.54025,154 c 1.56282,0 137.97033,20.76003 140.98156,21.45616 1.68003,0.38839 3.58735,5.31435 11.28279,29.1395 5.09353,15.76965 9.13372,28.78296 8.97819,28.91845 -0.84129,0.73288 -93.30234,2.50499 -129.78279,2.48741 -80.05628,-0.0386 -134.781637,-3.70685 -163.498742,-10.95945 -17.235099,-4.35278 -23.138963,-8.17591 -25.624351,-16.5934 -1.698661,-5.753 -2.455739,-3.91316 -3.410167,8.28734 l -0.706388,9.02979 3.369824,1.06778 C 36.983579,227.42086 60.1,233.74456 86.5,240.88625 c 26.4,7.1417 69.6,18.83521 96,25.98558 26.4,7.15038 79.05,21.35599 117,31.56802 37.95,10.21204 69.64335,18.9323 70.42966,19.37836 0.95356,0.54094 2.34589,6.41762 4.18096,17.64676 l 2.75129,16.83574 -7.43721,14.84965 c -5.45891,10.89961 -7.90105,14.82362 -9.18096,14.75182 C 359.28468,381.84837 337.8,376.50151 312.5,370.02026 Z M 178.99892,140.66429 c -4.58439,-2.33058 -4.20912,-8.96617 0.6065,-10.72424 2.6619,-0.97179 6.43977,0.88578 7.45453,3.66537 1.70685,4.67534 -3.60311,9.32516 -8.06103,7.05887 z m 7,-21 c -4.58439,-2.33058 -4.20912,-8.96617 0.6065,-10.72424 2.6619,-0.97179 6.43977,0.88578 7.45453,3.66537 1.70685,4.67534 -3.60311,9.32516 -8.06103,7.05887 z m 116.31117,-9.93255 C 264.14474,82.212326 244.94612,67.455694 245.41439,66 c 0.26539,-0.825 2.39369,-6.9 4.72956,-13.5 3.88185,-10.968167 4.25172,-12.859861 4.30154,-22 0.03,-5.5 -0.26719,-11.14039 -0.66038,-12.534199 -0.69459,-2.462253 -0.52425,-2.566615 6,-3.675992 15.68105,-2.666389 44.14662,-7.1305507 49.44326,-7.7540234 l 5.72836,-0.6742922 4.77164,4.8800256 c 2.62439,2.684013 8.11436,10.252677 12.19992,16.819253 4.08556,6.566575 11.62306,18.278346 16.75,26.026156 5.12694,7.747811 9.32171,14.516765 9.32171,15.04212 0,0.554814 -4.29639,0.218994 -10.25,-0.801173 -13.34243,-2.286261 -32.70915,-2.401865 -39.07372,-0.233239 -9.61555,3.276347 -10.87842,9.069924 -4.66903,21.419793 4.51403,8.97795 13.5624,31.044041 12.69839,30.967311 -0.1131,-0.0101 -6.5911,-4.62255 -14.39555,-10.25 z M 113,91.568064 C 113,90.54103 123.70807,63.552721 128.50091,52.5 c 8.06893,-18.60764 19.48916,-40.134869 20.1455,-37.974436 0.16282,0.53594 -2.0595,13.613678 -4.93849,29.06164 l -5.23453,28.087203 -11.50011,9.457563 C 114.94868,91.020866 113,92.476257 113,91.568064 Z"
       id="path4522"
       inkscape:connector-curvature="0" />
  </g>
</svg>
