<svg 
 xmlns="http://www.w3.org/2000/svg"
 xmlns:xlink="http://www.w3.org/1999/xlink"
 width="464px" height="400px">
<path fill-rule="evenodd"  fill="rgb(24, 24, 24)"
 d="M102.000,32.000 C115.946,31.527 141.317,38.194 145.000,48.000 C154.895,79.633 140.309,111.475 133.000,136.000 C116.002,199.327 98.998,262.673 82.000,326.000 C53.670,326.502 16.161,325.506 -0.000,313.000 C-0.000,312.667 -0.000,312.333 -0.000,312.000 C1.697,299.361 7.859,282.285 11.000,268.000 C29.131,185.541 41.207,99.109 83.000,41.000 C86.785,35.737 95.971,35.071 102.000,32.000 Z"/>
<path fill-rule="evenodd"  fill="rgb(248, 248, 248)"
 d="M89.000,127.000 L152.000,18.000 C152.000,18.000 140.128,46.764 194.000,95.000 C226.407,68.353 236.000,55.000 236.000,55.000 L251.000,10.000 L259.000,10.000 L324.000,188.000 L302.000,291.000 L266.000,359.000 L92.000,362.000 L53.000,295.000 L77.000,203.000 L89.000,127.000 Z"/>
<path fill-rule="evenodd"  fill="rgb(25, 25, 25)"
 d="M149.000,7.000 L111.000,89.000 L140.000,67.000 L153.000,8.000 L149.000,7.000 ZM253.000,10.000 C253.000,10.000 252.053,54.812 244.000,61.000 C262.033,75.339 390.000,156.000 390.000,156.000 L358.000,59.000 L323.000,5.000 L315.000,-0.000 L253.000,10.000 ZM52.000,127.000 L166.000,132.000 L170.000,171.000 L186.000,171.000 L193.000,147.000 L398.000,180.000 C398.000,180.000 403.485,223.613 403.000,226.000 C402.515,228.387 70.567,243.282 41.000,211.000 C34.491,200.378 35.000,198.000 35.000,198.000 C35.000,198.000 24.983,159.141 52.000,127.000 ZM32.000,220.000 L392.000,319.000 L364.000,379.000 L33.000,295.000 C33.000,295.000 20.122,229.549 32.000,220.000 Z"/>
<path fill-rule="evenodd"  fill="rgb(204, 204, 204)"
 d="M125.000,78.000 L140.000,67.000 L190.000,100.000 L125.000,78.000 ZM197.000,99.000 L246.000,62.000 L256.000,70.000 L197.000,99.000 ZM150.000,2.000 L150.000,7.000 L112.000,89.000 L111.000,97.000 L89.000,128.000 L54.000,127.000 C54.000,127.000 84.999,37.995 150.000,2.000 ZM290.000,96.000 C290.000,96.000 387.256,152.932 389.000,155.000 C390.744,157.068 396.000,178.000 396.000,178.000 L312.000,166.000 C312.000,166.000 291.694,100.446 290.000,96.000 ZM313.000,231.000 L402.000,227.000 C402.000,227.000 394.584,310.934 390.000,318.000 C319.780,298.176 294.000,291.000 294.000,291.000 C294.000,291.000 316.176,238.411 313.000,231.000 ZM254.000,349.000 L364.000,378.000 L351.000,399.000 L87.000,400.000 L34.000,295.000 L81.000,307.000 L110.000,354.000 L249.000,352.000 L254.000,349.000 ZM33.000,221.000 L36.000,201.000 L42.000,213.000 L82.000,225.000 L79.000,232.000 L33.000,221.000 Z"/>
<path fill-rule="evenodd"  fill="rgb(25, 25, 25)"
 d="M189.000,103.000 C192.866,103.000 196.000,105.910 196.000,109.500 C196.000,113.090 192.866,116.000 189.000,116.000 C185.134,116.000 182.000,113.090 182.000,109.500 C182.000,105.910 185.134,103.000 189.000,103.000 Z"/>
<path fill-rule="evenodd"  fill="rgb(25, 25, 25)"
 d="M182.500,124.000 C186.090,124.000 189.000,126.910 189.000,130.500 C189.000,134.090 186.090,137.000 182.500,137.000 C178.910,137.000 176.000,134.090 176.000,130.500 C176.000,126.910 178.910,124.000 182.500,124.000 Z"/>
<path fill-rule="evenodd"  fill="rgb(39, 38, 38)"
 d="M303.000,81.000 C303.000,81.000 294.004,63.003 314.000,62.000 C333.996,60.997 378.000,71.000 378.000,71.000 L435.000,222.000 L464.000,389.000 L394.000,393.000 L384.000,386.000 C384.000,386.000 363.490,247.734 360.000,240.000 C356.510,232.266 312.078,89.170 303.000,81.000 Z"/>
<path fill-rule="evenodd"  fill="rgb(42, 42, 42)"
 d="M322.000,73.000 L372.000,76.000 L425.000,220.000 C425.000,220.000 425.078,220.533 425.225,221.541 C427.715,238.569 450.000,391.000 450.000,391.000 L420.000,392.000 L403.000,260.000 L410.000,248.000 L420.000,234.000 L410.000,208.000 C410.000,208.000 401.699,208.713 400.000,209.000 C398.301,209.287 374.000,199.000 374.000,199.000 L322.000,73.000 Z"/>
</svg>