<svg id="Overalls.svg" xmlns="http://www.w3.org/2000/svg" width="395.562" height="702.06" viewBox="0 0 395.562 702.06">
  <defs>
    <style>
      .cls-1 {
        fill: #2a3b45;
      }

      .cls-1, .cls-2, .cls-3 {
        fill-rule: evenodd;
      }

      .cls-2 {
        fill: #192329;
      }

      .cls-3 {
        fill: #324652;
      }
    </style>
  </defs>
  <path id="べた塗り_1" data-name="べた塗り 1" class="cls-1" d="M515,845l23,25-42,44,46,136,27,136,9,24s-36.383,20.4-21,62,36,42,36,42,38.928,225.18,16,229-146-10-146-10l-30-40V1300l-29-2-7,195s3.213,27.18-35,31-93.8-20.77-111-59-2-201-2-201l12-52-21-78s-16.111-59.28-10-88,60-111,60-111l-14-48,25-25,21,48,101,10,18-4Z" transform="translate(-223.844 -845)"/>
  <path id="べた塗り_2" data-name="べた塗り 2" class="cls-2" d="M515,846l-76,73L323,908l13,22,95,11s18.408-2.686,25,13,42,105,42,105l8,72-55,68-86,1H303l84,19,78,15,60,15,10,46,5,120-28,81-45,34s110.145,27.13,141,13c11.4-27.1,11-39,11-39l-23-190s-77.991-34.16-20-103c-14.974-64.79-16-83-16-83s-48.871-192.453-60-214c25.354-23.98,39-44,39-44Z" transform="translate(-223.844 -845)"/>
  <path id="べた塗り_3" data-name="べた塗り 3" class="cls-2" d="M468,1529l-35-35-12-197s-20.791,190.31-27,203-25,24-25,24l-29-3H326l11-15,33-11,43-243,36,47,5,144S434.828,1484.77,468,1529Z" transform="translate(-223.844 -845)"/>
  <path id="べた塗り_4" data-name="べた塗り 4" class="cls-2" d="M293,1121L282,995l34,120,114,3,6-115,20,134-51,56,6-33-90-9,6,51S298.592,1157.37,293,1121Z" transform="translate(-223.844 -845)"/>
  <path id="べた塗り_5" data-name="べた塗り 5" class="cls-2" d="M340,1509l2,16-118-56s-2.223-14.82,10-76,28-176,28-176l-5,166s-8.031,39.48,0,55,28,48,28,48Z" transform="translate(-223.844 -845)"/>
  <path id="べた塗り_6" data-name="べた塗り 6" class="cls-3" d="M312,1464l-56-41,59-160,25,92,22,71Zm159-78-5-80,45,39-3,82-34,54ZM335,1102L304,974l107,3-3,133Z" transform="translate(-223.844 -845)"/>
  <path id="シェイプ_1" data-name="シェイプ 1" class="cls-3" d="M366.441,1200.7l5.118,8.6-47,28-5.118-8.6Z" transform="translate(-223.844 -845)"/>
  <path id="シェイプ_2" data-name="シェイプ 2" class="cls-3" d="M321.81,1235.76l-7.62,6.48-34-40,7.62-6.48Z" transform="translate(-223.844 -845)"/>
  <path id="シェイプ_3" data-name="シェイプ 3" class="cls-3" d="M282.474,1201.97l1.052-9.94,85,9-1.052,9.94Z" transform="translate(-223.844 -845)"/>
  <path id="シェイプ_4" data-name="シェイプ 4" class="cls-3" d="M369.709,1210.7l-3.418-9.4,66-24,3.418,9.4Z" transform="translate(-223.844 -845)"/>
  <path id="シェイプ_5" data-name="シェイプ 5" class="cls-3" d="M429.01,1182.32l9.98-.64,3,47-9.98.64Z" transform="translate(-223.844 -845)"/>
  <path id="シェイプ_6" data-name="シェイプ 6" class="cls-3" d="M438.356,1222.19l-2.712,9.62-71-20,2.712-9.62Z" transform="translate(-223.844 -845)"/>
  <path id="シェイプ_7" data-name="シェイプ 7" class="cls-3" d="M362.124,1210.16l7.752-6.32,44,54-7.752,6.32Z" transform="translate(-223.844 -845)"/>
  <path id="シェイプ_8" data-name="シェイプ 8" class="cls-3" d="M365.034,1203.95l7.932,6.1-43,56-7.932-6.1Z" transform="translate(-223.844 -845)"/>
</svg>
